<svg width="259" height="60" viewBox="0 0 259 60" fill="none" xmlns="http://www.w3.org/2000/svg">
<path d="M113.396 43.7182C113.396 44.1176 113.236 44.3572 112.837 44.3572H105.887C105.488 44.3572 105.328 44.1176 105.328 43.6383C105.328 42.2803 105.408 40.2834 105.488 37.6473C105.567 35.0113 105.647 33.0143 105.647 31.6564C105.647 31.257 105.567 31.0972 105.488 31.0173C105.328 31.0972 104.449 33.0942 102.852 37.0882C101.893 39.4047 100.934 41.7212 99.9759 44.1176C99.8161 44.4371 99.6564 44.5968 99.4966 44.6767C99.4167 44.6767 99.1771 44.6767 98.6978 44.6767C97.9789 44.6767 97.5795 44.517 97.4996 44.2773C96.7807 42.8395 95.8222 40.7626 94.7039 37.9669C93.5057 35.0113 92.5471 32.9344 91.9081 31.6564C91.9081 31.5765 91.8282 31.4966 91.7483 31.4167C91.6684 31.4966 91.5886 31.7362 91.5886 31.9759C91.5886 33.254 91.5886 35.1711 91.6684 37.8071C91.7483 40.3632 91.7483 42.2803 91.7483 43.6383C91.7483 44.1176 91.5886 44.3572 91.1892 44.3572H84.5592C84.3195 44.3572 84.1598 44.2773 84.0799 44.1975C84 44.1176 84 43.9578 84 43.7182C84 42.2803 84.0799 40.1236 84.2396 37.2479C84.3994 34.3723 84.4793 32.2155 84.4793 30.7777C84.4793 29.26 84.3994 26.3843 84.3195 22.2306C84.3195 21.1123 84.2396 19.5147 84.1598 17.3579V17.0384C84.1598 16.7988 84.3994 16.639 84.9586 16.639C85.6775 16.639 86.7958 16.639 88.2336 16.5591C89.6714 16.4793 90.7898 16.4793 91.5087 16.4793C91.6684 16.4793 91.8282 16.7189 92.1477 17.2781L97.899 29.899C98.2984 30.7777 98.618 31.1771 98.9375 31.1771C99.0972 31.1771 99.4167 30.6978 99.896 29.7393C101.254 26.9435 103.171 22.7897 105.807 17.2781C106.047 16.7988 106.286 16.4793 106.526 16.4793C106.925 16.4793 107.485 16.4793 108.283 16.5591C109.082 16.639 109.641 16.639 110.041 16.639C110.36 16.639 110.84 16.639 111.558 16.5591C111.958 16.4793 112.437 16.4793 112.757 16.4793C113.156 16.4793 113.316 16.639 113.316 16.9585C113.316 18.4763 113.236 20.7928 113.156 23.9081C113.076 27.0234 112.996 29.3399 112.996 30.8576C112.996 32.2954 113.076 34.4522 113.156 37.3278C113.316 40.1236 113.396 42.2803 113.396 43.7182Z" fill="#333333"/>
<path d="M143.031 43.7981C143.031 44.0377 142.871 44.1975 142.552 44.2773C142.152 44.3572 140.954 44.4371 138.877 44.4371C136.96 44.4371 135.762 44.3572 135.283 44.2773C134.803 44.1975 134.564 43.878 134.404 43.3987C133.925 41.4816 133.605 40.523 133.366 40.3633C133.126 40.2834 131.369 40.2035 128.094 40.2035C125.857 40.2035 124.659 40.2834 124.499 40.3633C124.259 40.6029 124.02 41.2419 123.78 42.4401C123.54 43.5584 123.221 44.1176 122.901 44.1975C122.422 44.2773 120.984 44.3572 118.428 44.3572C116.431 44.3572 115.393 44.1975 115.393 43.7981C115.393 43.4786 116.91 39.2449 119.866 31.1771C123.061 22.4702 124.818 17.6775 125.138 16.7988C125.298 16.3195 125.458 16.0799 125.697 16.0799C126.017 16.0799 126.576 16.0799 127.375 16.1598C128.094 16.2396 128.653 16.2396 129.052 16.2396C129.372 16.2396 129.931 16.2396 130.65 16.1598C131.369 16.0799 131.848 16.0799 132.167 16.0799C132.407 16.0799 132.647 16.3195 132.886 16.7189C133.366 18.2366 135.203 23.0294 138.318 31.0972C141.433 39.1651 143.031 43.4786 143.031 43.7981ZM129.052 25.8252C128.812 26.3843 128.333 27.6624 127.614 29.5795C126.895 31.6564 126.576 32.8546 126.576 33.1741C126.576 33.4137 126.975 33.5735 127.774 33.5735C128.173 33.5735 128.812 33.5735 129.771 33.5735C130.65 33.5735 131.129 33.4936 131.209 33.254C131.209 33.1741 131.209 33.0942 131.209 33.0143C131.209 32.6149 130.889 31.4167 130.33 29.4198C129.771 27.5825 129.372 26.3843 129.052 25.8252Z" fill="#333333"/>
<path d="M168.513 44.1176C168.513 44.1975 168.353 44.2773 168.113 44.2773C167.634 44.3572 166.356 44.3572 164.359 44.3572C162.601 44.3572 161.483 44.3572 160.844 44.2773C160.525 44.2773 160.365 44.1975 160.365 44.1975C160.285 44.1975 160.205 44.0377 160.125 43.7981C159.965 43.3188 159.646 42.52 159.247 41.4816C158.767 40.2035 157.968 38.2065 156.85 35.6503C156.611 35.1711 156.051 34.8516 155.253 34.7717C155.652 34.7717 154.933 34.7717 153.256 34.7717C153.096 34.7717 152.936 35.0912 152.936 35.8101C152.936 36.6888 153.016 38.0467 153.176 39.8041C153.335 41.5614 153.415 42.9194 153.415 43.7981C153.415 44.0377 153.335 44.1176 153.256 44.1975C153.096 44.1975 152.856 44.1975 152.696 44.1975C151.898 44.2773 150.699 44.2773 149.102 44.2773C147.185 44.2773 146.066 44.2773 145.747 44.1975C145.348 44.1176 145.188 43.8779 145.188 43.5584C145.188 42.1206 145.268 39.9638 145.427 37.0083C145.587 34.0528 145.667 31.896 145.667 30.4582C145.667 24.8666 145.507 20.5531 145.268 17.4378V17.1982C145.268 16.9585 145.427 16.7988 145.907 16.7189C146.386 16.639 148.303 16.5591 151.898 16.4793C154.294 16.3994 156.291 16.3994 157.729 16.3994C160.684 16.3994 163.161 17.0384 165.078 18.3964C167.234 19.9141 168.273 22.1507 168.273 25.0264C168.273 26.9435 168.033 28.4612 167.474 29.5795C166.915 30.6978 165.877 31.8161 164.439 32.9344C164.119 33.1741 163.959 33.3338 163.959 33.4936C163.959 33.4936 164.758 35.0912 166.356 38.4461C167.714 41.9608 168.513 43.7182 168.513 44.1176ZM160.205 26.3843C160.205 24.7867 159.646 23.6684 158.608 23.0294C157.809 22.5501 156.531 22.3105 154.773 22.3105C153.495 22.3105 152.856 22.4702 152.776 22.8696C152.776 23.4288 152.696 24.7069 152.696 26.7837C152.696 27.1032 152.696 27.5026 152.696 28.1417C152.696 28.7008 152.696 29.1801 152.696 29.4996C152.696 29.5795 152.936 29.6594 153.335 29.6594C154.134 29.7393 155.013 29.8191 155.892 29.8191C158.767 29.8191 160.205 28.7008 160.205 26.3843Z" fill="#333333"/>
<path d="M195.033 43.1591C195.033 43.7182 194.793 44.1176 194.314 44.2774C193.914 44.4372 192.876 44.4372 191.198 44.4372C189.601 44.4372 188.403 44.3573 187.684 44.2774C187.364 44.1975 187.124 44.1176 186.965 44.0378C186.805 43.9579 186.725 43.7981 186.565 43.4786C185.607 41.7213 184.648 39.9639 183.69 38.2066C182.092 35.3309 181.213 33.8132 180.894 33.4937C179.456 33.9729 178.737 34.3723 178.737 34.612C178.737 35.5705 178.737 37.0882 178.817 39.0852C178.897 41.0822 178.897 42.5999 178.897 43.5585C178.897 43.9579 178.737 44.1975 178.338 44.2774C177.619 44.3573 176.421 44.4372 174.663 44.4372C172.986 44.4372 171.788 44.3573 171.308 44.2774C170.909 44.1975 170.749 43.9579 170.749 43.6384C170.749 42.2005 170.829 40.0438 170.989 37.248C171.149 34.3723 171.228 32.2156 171.228 30.7778C171.228 29.26 171.149 26.9435 171.069 23.9081C170.909 20.8727 170.909 18.5562 170.909 17.0385C170.909 16.719 171.069 16.6391 171.308 16.6391C171.708 16.6391 172.347 16.6391 173.146 16.719C173.944 16.719 174.583 16.7988 174.983 16.7988C175.382 16.7988 176.021 16.7988 176.82 16.719C177.619 16.719 178.258 16.6391 178.657 16.6391C178.897 16.6391 178.977 16.719 178.977 16.9586C178.977 17.9172 178.897 19.4349 178.817 21.352C178.737 23.349 178.657 24.7868 178.657 25.7453C178.657 26.8637 178.977 27.4228 179.616 27.4228C181.213 27.4228 182.412 27.0234 183.29 26.1447C183.929 25.5057 184.568 24.3874 185.207 22.7099C185.607 21.4319 186.326 19.5946 187.284 17.0385C187.444 16.719 187.763 16.5592 188.163 16.5592C188.482 16.5592 189.042 16.5592 189.681 16.6391C190.4 16.6391 190.879 16.719 191.198 16.719C191.518 16.719 192.077 16.719 192.796 16.719C193.515 16.719 193.994 16.719 194.393 16.719C194.713 16.719 194.873 16.8787 194.873 17.1982C194.873 17.5976 194.633 18.716 194.074 20.3934C192.476 25.346 190.559 28.4613 188.482 29.6594C188.083 29.8991 187.843 30.1387 187.843 30.2985C187.843 30.2985 189.042 32.2156 191.518 36.2096C193.754 40.1237 195.033 42.4402 195.033 43.1591Z" fill="#333333"/>
<path d="M224.588 30.5381C224.588 34.6119 223.31 38.0467 220.674 40.8425C218.038 43.6383 214.603 45.0761 210.529 45.0761C206.455 45.0761 203.1 43.6383 200.384 40.8425C197.748 38.0467 196.47 34.6119 196.47 30.6179C196.47 26.5441 197.748 23.1093 200.384 20.3135C203.1 17.4378 206.455 16 210.529 16C214.523 16 217.958 17.4378 220.594 20.3135C223.31 23.0294 224.588 26.4642 224.588 30.5381ZM217.159 30.4582C217.159 28.4612 216.6 26.7837 215.402 25.4258C214.124 23.988 212.526 23.269 210.609 23.269C208.772 23.269 207.174 23.988 205.896 25.5057C204.618 26.9435 204.059 28.621 204.059 30.4582C204.059 32.4552 204.618 34.1326 205.816 35.4906C207.014 36.9284 208.692 37.5675 210.609 37.5675C212.446 37.5675 214.044 36.8486 215.322 35.3308C216.52 33.9729 217.159 32.3753 217.159 30.4582Z" fill="#333333"/>
<path d="M256.939 43.7182C256.939 44.1176 256.779 44.3572 256.38 44.3572H249.351C248.951 44.3572 248.791 44.1176 248.791 43.6383C248.791 42.2803 248.871 40.2834 248.951 37.6473C249.031 35.0113 249.111 33.0143 249.111 31.6564C249.111 31.257 249.031 31.0972 248.951 31.0173C248.791 31.0972 247.913 33.0942 246.315 37.0882C245.357 39.4047 244.398 41.7212 243.439 44.1176C243.28 44.4371 243.12 44.5968 242.96 44.6767C242.88 44.6767 242.641 44.6767 242.161 44.6767C241.442 44.6767 241.043 44.517 240.963 44.2773C240.244 42.8395 239.286 40.7626 238.167 37.9669C236.969 35.0113 236.011 32.9344 235.372 31.6564C235.372 31.5765 235.292 31.4966 235.212 31.4167C235.132 31.4966 235.052 31.7362 235.052 31.9759C235.052 33.254 235.052 35.1711 235.132 37.8071C235.212 40.3632 235.212 42.2803 235.212 43.6383C235.212 44.1176 235.052 44.3572 234.653 44.3572H228.103C227.863 44.3572 227.703 44.2773 227.623 44.1975C227.543 44.1176 227.543 43.9578 227.543 43.7182C227.543 42.2803 227.623 40.1236 227.783 37.2479C227.943 34.3723 228.023 32.2155 228.023 30.7777C228.023 29.26 227.943 26.3843 227.863 22.2306C227.863 21.1123 227.783 19.5147 227.703 17.3579V17.0384C227.703 16.7988 227.943 16.639 228.502 16.639C229.221 16.639 230.339 16.639 231.777 16.5591C233.215 16.4793 234.333 16.4793 235.052 16.4793C235.212 16.4793 235.372 16.7189 235.691 17.2781L241.442 29.899C241.842 30.7777 242.161 31.1771 242.481 31.1771C242.641 31.1771 242.96 30.6978 243.439 29.7393C244.797 26.9435 246.715 22.7897 249.351 17.2781C249.59 16.7988 249.83 16.4793 250.069 16.4793C250.469 16.4793 251.028 16.4793 251.827 16.5591C252.626 16.639 253.185 16.639 253.584 16.639C253.904 16.639 254.383 16.639 255.102 16.5591C255.741 16.4793 256.3 16.4793 256.62 16.4793C257.019 16.4793 257.179 16.639 257.179 16.9585C257.179 18.4763 257.099 20.7928 257.019 23.9081C256.939 27.0234 256.859 29.3399 256.859 30.8576C256.859 32.2954 256.939 34.4522 257.019 37.3278C256.859 40.1236 256.939 42.2803 256.939 43.7182Z" fill="#333333"/>
<path d="M26.3471 41.4616C26.3471 41.4616 29.1461 42.2908 29.1461 43.8028C29.1461 45.3148 27.722 47.1194 25.5614 49.0704C23.4007 51.0214 20.0124 55.8989 16.624 55.1672C13.2357 54.4356 7.44119 50.7775 6.99923 50.1435C6.55728 49.4606 6.90102 47.656 10.7313 46.4366C14.5616 45.2172 22.9096 42.3883 22.9096 42.3883C22.9096 42.3883 25.7578 41.2665 26.3471 41.4616Z" fill="#1F7D63"/>
<path d="M26.7399 34.3405C26.7399 34.3405 28.5568 37.2182 26.7399 38.2425C24.9229 39.218 16.624 40.5837 14.2669 40.6324C11.9098 40.6812 5.77154 38.8278 4.24925 35.0721C2.67785 31.2677 0.860921 24.6344 2.92338 21.464C4.98584 18.3425 10.0929 17.0743 13.0392 20.1471C15.9856 23.2199 23.8917 31.6579 23.8917 31.6579L26.7399 34.3405Z" fill="#1F7D63"/>
<path d="M19.3739 14.8307C19.3739 14.8307 19.8159 18.1961 22.3694 22.4395C24.9229 26.6829 28.0657 31.9993 28.9496 32.731C29.8335 33.4626 32.5344 32.8285 32.6326 31.2677C32.7308 29.7069 35.4316 12.8309 35.4316 12.8309L36.07 6.39271C36.07 6.39271 35.6281 0.344664 31.2576 2.44197C26.8872 4.53928 20.0614 11.8067 20.0614 11.8067C20.0614 11.8067 19.1284 13.6601 19.3739 14.8307Z" fill="#1F7D63"/>
<path d="M35.8245 31.5116C35.8245 31.5116 37.3959 33.6089 38.6727 33.3162C39.9494 32.9748 42.6994 29.5606 44.4181 27.6584C46.1368 25.7562 49.2305 22.4883 46.7752 18.8302C44.3199 15.1233 40.5387 12.7334 39.5566 16.1964C38.5744 19.6106 36.1191 28.8778 36.1191 28.8778C36.1191 28.8778 35.6772 30.6824 35.8245 31.5116Z" fill="#1F7D63"/>
<path d="M40.8824 35.1209C40.8824 35.1209 38.6727 38.0962 41.7663 39.3155C44.86 40.4861 51.1456 40.5837 55.1723 40.291C59.199 39.9984 65.2391 38.4864 65.2882 35.755C65.2882 33.0724 62.9311 31.1702 60.7704 30.0484C58.6097 28.9266 53.6991 26.3903 53.6991 26.3903C53.6991 26.3903 51.7349 25.0246 49.5251 27.1219C47.3644 29.2192 41.9628 33.9991 40.8824 35.1209Z" fill="#1F7D63"/>
<path d="M39.6057 42.1932C39.6057 42.1932 41.0789 41.5591 42.503 41.8518C43.9271 42.1444 49.4761 43.0712 49.4269 45.0221C49.3778 46.9731 49.7707 49.3143 48.1993 51.4604C46.5788 53.6065 45.5967 54.9234 43.5833 52.4359C41.57 49.9971 38.9673 46.3878 38.9673 46.3878C38.9673 46.3878 37.445 43.4126 39.6057 42.1932Z" fill="#1F7D63"/>
<path d="M33.7129 44.6807C33.7129 44.6807 36.2173 44.827 37.003 47.4609C37.8378 50.0947 39.4092 54.9721 37.5923 56.1427C35.7754 57.3133 28.5077 58.9717 28.5077 58.9717C28.5077 58.9717 25.7577 59.4594 26.838 56.3866C27.9675 53.3138 29.9808 48.5827 29.9808 48.5827C29.9808 48.5827 31.4049 44.827 33.7129 44.6807Z" fill="#1F7D63"/>
</svg>
