<svg width="101" height="100" viewBox="0 0 101 100" fill="none" xmlns="http://www.w3.org/2000/svg">
<path fill-rule="evenodd" clip-rule="evenodd" d="M5 54V96H96V54H5ZM5 50H96V4H5V50ZM100 100H97H96H5H4H1H0V96V4V0H1H4H5H96H97H100H101V4V96V100H100ZM31.8409 37V23.9091H33.8523V37H31.8409ZM32.8636 21.7273C32.4716 21.7273 32.1335 21.5938 31.8494 21.3267C31.571 21.0597 31.4318 20.7386 31.4318 20.3636C31.4318 19.9886 31.571 19.6676 31.8494 19.4006C32.1335 19.1335 32.4716 19 32.8636 19C33.2557 19 33.5909 19.1335 33.8693 19.4006C34.1534 19.6676 34.2955 19.9886 34.2955 20.3636C34.2955 20.7386 34.1534 21.0597 33.8693 21.3267C33.5909 21.5938 33.2557 21.7273 32.8636 21.7273ZM37.5362 37V23.9091H39.4794V25.9545H39.6499C39.9226 25.2557 40.3629 24.7131 40.9709 24.3267C41.5788 23.9347 42.3089 23.7386 43.1612 23.7386C44.0249 23.7386 44.7436 23.9347 45.3175 24.3267C45.897 24.7131 46.3487 25.2557 46.6726 25.9545H46.8089C47.1442 25.2784 47.647 24.7415 48.3175 24.3438C48.9879 23.9403 49.7919 23.7386 50.7294 23.7386C51.8999 23.7386 52.8572 24.1051 53.6016 24.8381C54.3459 25.5653 54.718 26.6989 54.718 28.2386V37H52.7067V28.2386C52.7067 27.2727 52.4425 26.5824 51.9141 26.1676C51.3857 25.7528 50.7635 25.5455 50.0476 25.5455C49.1271 25.5455 48.4141 25.8239 47.9084 26.3807C47.4027 26.9318 47.1499 27.6307 47.1499 28.4773V37H45.1044V28.0341C45.1044 27.2898 44.8629 26.6903 44.38 26.2358C43.897 25.7756 43.2749 25.5455 42.5135 25.5455C41.9908 25.5455 41.5021 25.6847 41.0476 25.9631C40.5987 26.2415 40.2351 26.6278 39.9567 27.1222C39.6839 27.6108 39.5476 28.1761 39.5476 28.8182V37H37.5362ZM63.6797 42.1818C62.7081 42.1818 61.8729 42.0568 61.174 41.8068C60.4751 41.5625 59.8928 41.2386 59.4268 40.8352C58.9666 40.4375 58.6001 40.0114 58.3274 39.5568L59.9297 38.4318C60.1115 38.6705 60.3416 38.9432 60.62 39.25C60.8984 39.5625 61.2791 39.8324 61.7621 40.0597C62.2507 40.2926 62.8899 40.4091 63.6797 40.4091C64.7365 40.4091 65.6087 40.1534 66.2962 39.642C66.9837 39.1307 67.3274 38.3295 67.3274 37.2386V34.5795H67.157C67.0092 34.8182 66.799 35.1136 66.5263 35.4659C66.2592 35.8125 65.8729 36.1222 65.3672 36.3949C64.8672 36.6619 64.191 36.7955 63.3388 36.7955C62.282 36.7955 61.3331 36.5455 60.4922 36.0455C59.657 35.5455 58.995 34.8182 58.5064 33.8636C58.0234 32.9091 57.782 31.75 57.782 30.3864C57.782 29.0455 58.0178 27.8778 58.4893 26.8835C58.9609 25.8835 59.6172 25.1108 60.4581 24.5653C61.299 24.0142 62.2706 23.7386 63.3729 23.7386C64.2251 23.7386 64.9013 23.8807 65.4013 24.1648C65.907 24.4432 66.2933 24.7614 66.5604 25.1193C66.8331 25.4716 67.0433 25.7614 67.1911 25.9886H67.3956V23.9091H69.3388V37.375C69.3388 38.5 69.0831 39.4148 68.5717 40.1193C68.0661 40.8295 67.3842 41.3494 66.5263 41.679C65.674 42.0142 64.7251 42.1818 63.6797 42.1818ZM63.6115 34.9886C64.4183 34.9886 65.1001 34.804 65.657 34.4347C66.2138 34.0653 66.6371 33.5341 66.9268 32.8409C67.2166 32.1477 67.3615 31.3182 67.3615 30.3523C67.3615 29.4091 67.2195 28.5767 66.9354 27.8551C66.6513 27.1335 66.2308 26.5682 65.674 26.1591C65.1172 25.75 64.4297 25.5455 63.6115 25.5455C62.7592 25.5455 62.049 25.7614 61.4808 26.1932C60.9183 26.625 60.495 27.2045 60.2109 27.9318C59.9325 28.6591 59.7933 29.4659 59.7933 30.3523C59.7933 31.2614 59.9354 32.0653 60.2195 32.7642C60.5092 33.4574 60.9354 34.0028 61.4979 34.4006C62.0661 34.7926 62.7706 34.9886 63.6115 34.9886Z" fill="rgb(148,148,148)"/>
</svg>
