<svg width="101" height="100" viewBox="0 0 101 100" fill="none" xmlns="http://www.w3.org/2000/svg">
<path fill-rule="evenodd" d="M5 54V96H96V54H5ZM5 50H96V4H5V50ZM100 100H97H96H5H4H1H0V96V4V0H1H4H5H96H97H100H101V4V96V100H100ZM31.8409 81V67.9091H33.8523V81H31.8409ZM32.8636 65.7273C32.4716 65.7273 32.1335 65.5938 31.8494 65.3267C31.571 65.0597 31.4318 64.7386 31.4318 64.3636C31.4318 63.9886 31.571 63.6676 31.8494 63.4006C32.1335 63.1335 32.4716 63 32.8636 63C33.2557 63 33.5909 63.1335 33.8693 63.4006C34.1534 63.6676 34.2955 63.9886 34.2955 64.3636C34.2955 64.7386 34.1534 65.0597 33.8693 65.3267C33.5909 65.5938 33.2557 65.7273 32.8636 65.7273ZM37.5362 81V67.9091H39.4794V69.9545H39.6499C39.9226 69.2557 40.3629 68.7131 40.9709 68.3267C41.5788 67.9347 42.3089 67.7386 43.1612 67.7386C44.0249 67.7386 44.7436 67.9347 45.3175 68.3267C45.897 68.7131 46.3487 69.2557 46.6726 69.9545H46.8089C47.1442 69.2784 47.647 68.7415 48.3175 68.3438C48.9879 67.9403 49.7919 67.7386 50.7294 67.7386C51.8999 67.7386 52.8572 68.1051 53.6016 68.8381C54.3459 69.5653 54.718 70.6989 54.718 72.2386V81H52.7067V72.2386C52.7067 71.2727 52.4425 70.5824 51.9141 70.1676C51.3857 69.7528 50.7635 69.5455 50.0476 69.5455C49.1271 69.5455 48.4141 69.8239 47.9084 70.3807C47.4027 70.9318 47.1499 71.6307 47.1499 72.4773V81H45.1044V72.0341C45.1044 71.2898 44.8629 70.6903 44.38 70.2358C43.897 69.7756 43.2749 69.5455 42.5135 69.5455C41.9908 69.5455 41.5021 69.6847 41.0476 69.9631C40.5987 70.2415 40.2351 70.6278 39.9567 71.1222C39.6839 71.6108 39.5476 72.1761 39.5476 72.8182V81H37.5362ZM63.6797 86.1818C62.7081 86.1818 61.8729 86.0568 61.174 85.8068C60.4751 85.5625 59.8928 85.2386 59.4268 84.8352C58.9666 84.4375 58.6001 84.0114 58.3274 83.5568L59.9297 82.4318C60.1115 82.6705 60.3416 82.9432 60.62 83.25C60.8984 83.5625 61.2791 83.8324 61.7621 84.0597C62.2507 84.2926 62.8899 84.4091 63.6797 84.4091C64.7365 84.4091 65.6087 84.1534 66.2962 83.642C66.9837 83.1307 67.3274 82.3295 67.3274 81.2386V78.5795H67.157C67.0092 78.8182 66.799 79.1136 66.5263 79.4659C66.2592 79.8125 65.8729 80.1222 65.3672 80.3949C64.8672 80.6619 64.191 80.7955 63.3388 80.7955C62.282 80.7955 61.3331 80.5455 60.4922 80.0455C59.657 79.5455 58.995 78.8182 58.5064 77.8636C58.0234 76.9091 57.782 75.75 57.782 74.3864C57.782 73.0455 58.0178 71.8778 58.4893 70.8835C58.9609 69.8835 59.6172 69.1108 60.4581 68.5653C61.299 68.0142 62.2706 67.7386 63.3729 67.7386C64.2251 67.7386 64.9013 67.8807 65.4013 68.1648C65.907 68.4432 66.2933 68.7614 66.5604 69.1193C66.8331 69.4716 67.0433 69.7614 67.1911 69.9886H67.3956V67.9091H69.3388V81.375C69.3388 82.5 69.0831 83.4148 68.5717 84.1193C68.0661 84.8295 67.3842 85.3494 66.5263 85.679C65.674 86.0142 64.7251 86.1818 63.6797 86.1818ZM63.6115 78.9886C64.4183 78.9886 65.1001 78.804 65.657 78.4347C66.2138 78.0653 66.6371 77.5341 66.9268 76.8409C67.2166 76.1477 67.3615 75.3182 67.3615 74.3523C67.3615 73.4091 67.2195 72.5767 66.9354 71.8551C66.6513 71.1335 66.2308 70.5682 65.674 70.1591C65.1172 69.75 64.4297 69.5455 63.6115 69.5455C62.7592 69.5455 62.049 69.7614 61.4808 70.1932C60.9183 70.625 60.495 71.2045 60.2109 71.9318C59.9325 72.6591 59.7933 73.4659 59.7933 74.3523C59.7933 75.2614 59.9354 76.0653 60.2195 76.7642C60.5092 77.4574 60.9354 78.0028 61.4979 78.4006C62.0661 78.7926 62.7706 78.9886 63.6115 78.9886Z" fill="rgb(148,148,148)"/>
</svg>
