<svg width="101" height="100" viewBox="0 0 101 100" fill="none" xmlns="http://www.w3.org/2000/svg">
<path fill-rule="evenodd" clip-rule="evenodd" d="M5 4V96H48V4H5ZM48 0H52H96H97H100H101V4V96V100H100H97H96H52H48H5H4H1H0V96V4V0H1H4H5H48ZM52 96H96V4H52V96ZM55.8409 50V36.9091H57.8523V50H55.8409ZM56.8636 34.7273C56.4716 34.7273 56.1335 34.5938 55.8494 34.3267C55.571 34.0597 55.4318 33.7386 55.4318 33.3636C55.4318 32.9886 55.571 32.6676 55.8494 32.4006C56.1335 32.1335 56.4716 32 56.8636 32C57.2557 32 57.5909 32.1335 57.8693 32.4006C58.1534 32.6676 58.2955 32.9886 58.2955 33.3636C58.2955 33.7386 58.1534 34.0597 57.8693 34.3267C57.5909 34.5938 57.2557 34.7273 56.8636 34.7273ZM61.5362 50V36.9091H63.4794V38.9545H63.6499C63.9226 38.2557 64.3629 37.7131 64.9709 37.3267C65.5788 36.9347 66.309 36.7386 67.1612 36.7386C68.0249 36.7386 68.7436 36.9347 69.3175 37.3267C69.897 37.7131 70.3487 38.2557 70.6726 38.9545H70.809C71.1442 38.2784 71.647 37.7415 72.3175 37.3438C72.9879 36.9403 73.7919 36.7386 74.7294 36.7386C75.8999 36.7386 76.8572 37.1051 77.6016 37.8381C78.3459 38.5653 78.718 39.6989 78.718 41.2386V50H76.7067V41.2386C76.7067 40.2727 76.4425 39.5824 75.9141 39.1676C75.3857 38.7528 74.7635 38.5455 74.0476 38.5455C73.1271 38.5455 72.4141 38.8239 71.9084 39.3807C71.4027 39.9318 71.1499 40.6307 71.1499 41.4773V50H69.1044V41.0341C69.1044 40.2898 68.8629 39.6903 68.38 39.2358C67.897 38.7756 67.2749 38.5455 66.5135 38.5455C65.9908 38.5455 65.5021 38.6847 65.0476 38.9631C64.5987 39.2415 64.2351 39.6278 63.9567 40.1222C63.6839 40.6108 63.5476 41.1761 63.5476 41.8182V50H61.5362ZM87.6797 55.1818C86.7081 55.1818 85.8729 55.0568 85.174 54.8068C84.4751 54.5625 83.8928 54.2386 83.4268 53.8352C82.9666 53.4375 82.6001 53.0114 82.3274 52.5568L83.9297 51.4318C84.1115 51.6705 84.3416 51.9432 84.62 52.25C84.8984 52.5625 85.2791 52.8324 85.7621 53.0597C86.2507 53.2926 86.8899 53.4091 87.6797 53.4091C88.7365 53.4091 89.6087 53.1534 90.2962 52.642C90.9837 52.1307 91.3274 51.3295 91.3274 50.2386V47.5795H91.157C91.0092 47.8182 90.799 48.1136 90.5263 48.4659C90.2592 48.8125 89.8729 49.1222 89.3672 49.3949C88.8672 49.6619 88.191 49.7955 87.3388 49.7955C86.282 49.7955 85.3331 49.5455 84.4922 49.0455C83.657 48.5455 82.995 47.8182 82.5064 46.8636C82.0234 45.9091 81.782 44.75 81.782 43.3864C81.782 42.0455 82.0178 40.8778 82.4893 39.8835C82.9609 38.8835 83.6172 38.1108 84.4581 37.5653C85.299 37.0142 86.2706 36.7386 87.3729 36.7386C88.2251 36.7386 88.9013 36.8807 89.4013 37.1648C89.907 37.4432 90.2933 37.7614 90.5604 38.1193C90.8331 38.4716 91.0433 38.7614 91.1911 38.9886H91.3956V36.9091H93.3388V50.375C93.3388 51.5 93.0831 52.4148 92.5717 53.1193C92.0661 53.8295 91.3842 54.3494 90.5263 54.679C89.674 55.0142 88.7251 55.1818 87.6797 55.1818ZM87.6115 47.9886C88.4183 47.9886 89.1001 47.804 89.657 47.4347C90.2138 47.0653 90.6371 46.5341 90.9268 45.8409C91.2166 45.1477 91.3615 44.3182 91.3615 43.3523C91.3615 42.4091 91.2195 41.5767 90.9354 40.8551C90.6513 40.1335 90.2308 39.5682 89.674 39.1591C89.1172 38.75 88.4297 38.5455 87.6115 38.5455C86.7592 38.5455 86.049 38.7614 85.4808 39.1932C84.9183 39.625 84.495 40.2045 84.2109 40.9318C83.9325 41.6591 83.7933 42.4659 83.7933 43.3523C83.7933 44.2614 83.9354 45.0653 84.2195 45.7642C84.5092 46.4574 84.9354 47.0028 85.4979 47.4006C86.066 47.7926 86.7706 47.9886 87.6115 47.9886Z" fill="rgb(148,148,148)"/>
</svg>
