<svg width="100" height="100" viewBox="0 0 100 100" fill="none" xmlns="http://www.w3.org/2000/svg">
<path fill-rule="evenodd" clip-rule="evenodd" d="M50 4H4V96H50V4ZM50 0H54H96H100V4V96V100H96H54H50H4H0V96V4V0H4H50ZM54 96H96V4H54V96ZM7.84091 50V36.9091H9.85227V50H7.84091ZM8.86364 34.7273C8.47159 34.7273 8.13352 34.5938 7.84943 34.3267C7.57102 34.0597 7.43182 33.7386 7.43182 33.3636C7.43182 32.9886 7.57102 32.6676 7.84943 32.4006C8.13352 32.1335 8.47159 32 8.86364 32C9.25568 32 9.59091 32.1335 9.86932 32.4006C10.1534 32.6676 10.2955 32.9886 10.2955 33.3636C10.2955 33.7386 10.1534 34.0597 9.86932 34.3267C9.59091 34.5938 9.25568 34.7273 8.86364 34.7273ZM13.5362 50V36.9091H15.4794V38.9545H15.6499C15.9226 38.2557 16.3629 37.7131 16.9709 37.3267C17.5788 36.9347 18.3089 36.7386 19.1612 36.7386C20.0249 36.7386 20.7436 36.9347 21.3175 37.3267C21.897 37.7131 22.3487 38.2557 22.6726 38.9545H22.8089C23.1442 38.2784 23.647 37.7415 24.3175 37.3438C24.9879 36.9403 25.7919 36.7386 26.7294 36.7386C27.8999 36.7386 28.8572 37.1051 29.6016 37.8381C30.3459 38.5653 30.718 39.6989 30.718 41.2386V50H28.7067V41.2386C28.7067 40.2727 28.4425 39.5824 27.9141 39.1676C27.3857 38.7528 26.7635 38.5455 26.0476 38.5455C25.1271 38.5455 24.4141 38.8239 23.9084 39.3807C23.4027 39.9318 23.1499 40.6307 23.1499 41.4773V50H21.1044V41.0341C21.1044 40.2898 20.8629 39.6903 20.38 39.2358C19.897 38.7756 19.2749 38.5455 18.5135 38.5455C17.9908 38.5455 17.5021 38.6847 17.0476 38.9631C16.5987 39.2415 16.2351 39.6278 15.9567 40.1222C15.6839 40.6108 15.5476 41.1761 15.5476 41.8182V50H13.5362ZM39.6797 55.1818C38.7081 55.1818 37.8729 55.0568 37.174 54.8068C36.4751 54.5625 35.8928 54.2386 35.4268 53.8352C34.9666 53.4375 34.6001 53.0114 34.3274 52.5568L35.9297 51.4318C36.1115 51.6705 36.3416 51.9432 36.62 52.25C36.8984 52.5625 37.2791 52.8324 37.7621 53.0597C38.2507 53.2926 38.8899 53.4091 39.6797 53.4091C40.7365 53.4091 41.6087 53.1534 42.2962 52.642C42.9837 52.1307 43.3274 51.3295 43.3274 50.2386V47.5795H43.157C43.0092 47.8182 42.799 48.1136 42.5263 48.4659C42.2592 48.8125 41.8729 49.1222 41.3672 49.3949C40.8672 49.6619 40.1911 49.7955 39.3388 49.7955C38.282 49.7955 37.3331 49.5455 36.4922 49.0455C35.657 48.5455 34.995 47.8182 34.5064 46.8636C34.0234 45.9091 33.782 44.75 33.782 43.3864C33.782 42.0455 34.0178 40.8778 34.4893 39.8835C34.9609 38.8835 35.6172 38.1108 36.4581 37.5653C37.299 37.0142 38.2706 36.7386 39.3729 36.7386C40.2251 36.7386 40.9013 36.8807 41.4013 37.1648C41.907 37.4432 42.2933 37.7614 42.5604 38.1193C42.8331 38.4716 43.0433 38.7614 43.1911 38.9886H43.3956V36.9091H45.3388V50.375C45.3388 51.5 45.0831 52.4148 44.5717 53.1193C44.0661 53.8295 43.3842 54.3494 42.5263 54.679C41.674 55.0142 40.7251 55.1818 39.6797 55.1818ZM39.6115 47.9886C40.4183 47.9886 41.1001 47.804 41.657 47.4347C42.2138 47.0653 42.6371 46.5341 42.9268 45.8409C43.2166 45.1477 43.3615 44.3182 43.3615 43.3523C43.3615 42.4091 43.2195 41.5767 42.9354 40.8551C42.6513 40.1335 42.2308 39.5682 41.674 39.1591C41.1172 38.75 40.4297 38.5455 39.6115 38.5455C38.7592 38.5455 38.049 38.7614 37.4808 39.1932C36.9183 39.625 36.495 40.2045 36.2109 40.9318C35.9325 41.6591 35.7933 42.4659 35.7933 43.3523C35.7933 44.2614 35.9354 45.0653 36.2195 45.7642C36.5092 46.4574 36.9354 47.0028 37.4979 47.4006C38.0661 47.7926 38.7706 47.9886 39.6115 47.9886Z" fill="rgb(148,148,148)"/>
</svg>
